<svg width="364" height="117" viewBox="0 0 364 117" fill="none" xmlns="http://www.w3.org/2000/svg">
<g filter="url(#filter0_d_4_17)">
<path d="M78.4 74H56.368L47.536 36.464H50.752L41.872 74H19.744L4.48 10.64H25.888L32.128 49.424H31.888L42.544 10.64H55.696L66.352 49.424H66.112L72.352 10.64H93.76L78.4 74ZM115.576 10.64H133.768L159.88 74H140.056L136.024 63.008H113.416L109.336 74H89.464L115.576 10.64ZM119.656 46.88H129.784L124.792 32.912H124.648L119.656 46.88Z" fill="white"/>
<path d="M170.496 34.352L161.04 38.96V21.488L180.864 10.64H189.072V74H170.496V34.352ZM194.859 42.368C194.859 36.96 195.563 32.208 196.971 28.112C198.411 24.016 200.379 20.592 202.875 17.84C205.403 15.056 208.283 12.976 211.515 11.6C214.779 10.192 218.235 9.488 221.883 9.488C225.563 9.488 229.019 10.192 232.251 11.6C235.515 12.976 238.395 15.056 240.891 17.84C243.387 20.592 245.339 24.016 246.747 28.112C248.155 32.208 248.859 36.96 248.859 42.368C248.859 48.32 248.155 53.392 246.747 57.584C245.339 61.744 243.387 65.12 240.891 67.712C238.395 70.272 235.515 72.16 232.251 73.376C229.019 74.56 225.563 75.152 221.883 75.152C218.235 75.152 214.779 74.56 211.515 73.376C208.283 72.16 205.403 70.272 202.875 67.712C200.379 65.12 198.411 61.744 196.971 57.584C195.563 53.392 194.859 48.32 194.859 42.368ZM213.435 42.368C213.435 46.176 213.723 49.312 214.299 51.776C214.907 54.208 215.835 56.016 217.083 57.2C218.331 58.352 219.931 58.928 221.883 58.928C223.867 58.928 225.467 58.336 226.683 57.152C227.931 55.968 228.843 54.16 229.419 51.728C229.995 49.264 230.283 46.144 230.283 42.368C230.283 38.976 229.995 36.048 229.419 33.584C228.843 31.088 227.931 29.152 226.683 27.776C225.467 26.4 223.867 25.712 221.883 25.712C219.931 25.712 218.331 26.4 217.083 27.776C215.835 29.152 214.907 31.088 214.299 33.584C213.723 36.048 213.435 38.976 213.435 42.368Z" fill="#33B7C4"/>
</g>
<g filter="url(#filter1_d_4_17)">
<path d="M11.872 86.5543C13.024 86.5543 14 86.693 14.8 86.9703C15.6 87.237 16.224 87.525 16.672 87.8343C17.1307 88.133 17.392 88.325 17.456 88.4103L16.672 89.5463C16.512 89.397 16.2347 89.189 15.84 88.9223C15.4453 88.6556 14.9227 88.4103 14.272 88.1863C13.632 87.9623 12.8587 87.8503 11.952 87.8503C10.4907 87.8503 9.344 88.165 8.512 88.7943C7.68 89.413 7.264 90.2663 7.264 91.3543C7.264 92.0903 7.48267 92.7356 7.92 93.2903C8.35733 93.8343 8.94933 94.3303 9.696 94.7783C10.4427 95.2156 11.2747 95.6476 12.192 96.0743C12.8853 96.3943 13.5947 96.7516 14.32 97.1463C15.0453 97.541 15.712 98.005 16.32 98.5383C16.9387 99.0716 17.4347 99.6903 17.808 100.394C18.192 101.098 18.384 101.914 18.384 102.842C18.384 103.653 18.2187 104.4 17.888 105.082C17.568 105.754 17.104 106.346 16.496 106.858C15.8987 107.36 15.1787 107.749 14.336 108.026C13.504 108.304 12.576 108.442 11.552 108.442C10.368 108.442 9.29067 108.288 8.32 107.978C7.36 107.669 6.58133 107.349 5.984 107.018C5.39733 106.688 5.07733 106.496 5.024 106.442L5.872 105.242C6.01067 105.349 6.24 105.509 6.56 105.722C6.88 105.925 7.28 106.138 7.76 106.362C8.25067 106.576 8.816 106.757 9.456 106.906C10.1067 107.056 10.8267 107.13 11.616 107.13C13.3653 107.13 14.6933 106.72 15.6 105.898C16.5067 105.066 16.96 104.026 16.96 102.778C16.96 101.797 16.6667 100.965 16.08 100.282C15.504 99.589 14.768 98.9863 13.872 98.4743C12.9867 97.9516 12.0747 97.4663 11.136 97.0183C10.1547 96.5383 9.264 96.0423 8.464 95.5303C7.664 95.0076 7.024 94.4103 6.544 93.7383C6.07467 93.0556 5.84 92.245 5.84 91.3063C5.84 90.3996 6.10133 89.589 6.624 88.8743C7.15733 88.149 7.87733 87.5836 8.784 87.1783C9.70133 86.7623 10.7307 86.5543 11.872 86.5543ZM22.3307 97.4823C22.3307 99.3063 22.7148 100.949 23.4828 102.41C24.2508 103.861 25.3068 105.013 26.6508 105.866C27.9948 106.709 29.5254 107.13 31.2428 107.13C32.9708 107.13 34.5014 106.709 35.8348 105.866C37.1681 105.013 38.2134 103.861 38.9708 102.41C39.7388 100.949 40.1228 99.3063 40.1228 97.4823C40.1228 95.6583 39.7388 94.021 38.9708 92.5703C38.2134 91.1196 37.1681 89.973 35.8348 89.1303C34.5014 88.2876 32.9708 87.8663 31.2428 87.8663C29.5254 87.8663 27.9948 88.2876 26.6508 89.1303C25.3068 89.973 24.2508 91.1196 23.4828 92.5703C22.7148 94.021 22.3307 95.6583 22.3307 97.4823ZM20.9708 97.4823C20.9708 95.9463 21.2268 94.517 21.7388 93.1943C22.2614 91.861 22.9868 90.6983 23.9148 89.7063C24.8428 88.7143 25.9308 87.941 27.1788 87.3863C28.4268 86.8316 29.7814 86.5543 31.2428 86.5543C32.7148 86.5543 34.0694 86.8316 35.3068 87.3863C36.5441 87.941 37.6268 88.7143 38.5548 89.7063C39.4828 90.6983 40.1974 91.861 40.6988 93.1943C41.2108 94.517 41.4668 95.9463 41.4668 97.4823C41.4668 99.029 41.2108 100.469 40.6988 101.802C40.1974 103.125 39.4828 104.288 38.5548 105.29C37.6268 106.282 36.5441 107.056 35.3068 107.61C34.0694 108.165 32.7148 108.442 31.2428 108.442C29.7708 108.442 28.4108 108.165 27.1628 107.61C25.9148 107.056 24.8268 106.282 23.8988 105.29C22.9814 104.288 22.2614 103.125 21.7388 101.802C21.2268 100.469 20.9708 99.029 20.9708 97.4823ZM44.843 86.9383H46.171V106.778H54.923V108.058H44.843V86.9383ZM72.0145 86.9383H73.3425V100.154C73.3425 101.893 72.9905 103.381 72.2865 104.618C71.5825 105.856 70.6438 106.805 69.4705 107.466C68.3078 108.117 67.0172 108.442 65.5985 108.442C64.1798 108.442 62.8785 108.117 61.6945 107.466C60.5105 106.805 59.5665 105.856 58.8625 104.618C58.1585 103.381 57.8065 101.893 57.8065 100.154V86.9383H59.1185V100.09C59.1185 101.509 59.4065 102.746 59.9825 103.802C60.5692 104.858 61.3532 105.68 62.3345 106.266C63.3158 106.853 64.4038 107.146 65.5985 107.146C66.7825 107.146 67.8598 106.853 68.8305 106.266C69.8012 105.68 70.5745 104.858 71.1505 103.802C71.7265 102.746 72.0145 101.509 72.0145 100.09V86.9383ZM87.305 107.146C88.8517 107.146 90.1583 106.944 91.225 106.538C92.2917 106.122 93.0383 105.722 93.465 105.338L94.057 106.49C93.5983 106.917 92.7823 107.349 91.609 107.786C90.4357 108.224 89.017 108.442 87.353 108.442C85.7957 108.442 84.361 108.16 83.049 107.594C81.7477 107.029 80.6063 106.25 79.625 105.258C78.6543 104.256 77.897 103.098 77.353 101.786C76.8197 100.464 76.553 99.045 76.553 97.5303C76.553 96.0156 76.8197 94.597 77.353 93.2743C77.8863 91.941 78.6383 90.773 79.609 89.7703C80.5903 88.7676 81.737 87.9836 83.049 87.4183C84.361 86.8423 85.7957 86.5543 87.353 86.5543C89.017 86.5543 90.4357 86.773 91.609 87.2103C92.7823 87.6476 93.5983 88.0796 94.057 88.5063L93.465 89.6583C93.0383 89.2636 92.2917 88.8636 91.225 88.4583C90.1583 88.053 88.8517 87.8503 87.305 87.8503C86.0357 87.8503 84.841 88.0796 83.721 88.5383C82.6117 88.997 81.6197 89.653 80.745 90.5063C79.881 91.349 79.2037 92.3623 78.713 93.5463C78.2223 94.7196 77.977 96.0316 77.977 97.4823C77.977 98.9436 78.2223 100.266 78.713 101.45C79.2037 102.634 79.881 103.653 80.745 104.506C81.6197 105.349 82.6117 106 83.721 106.458C84.841 106.917 86.0357 107.146 87.305 107.146ZM87.321 114.778C86.6917 114.778 86.0997 114.677 85.545 114.474C84.9903 114.282 84.5797 114.096 84.313 113.914L85.081 112.97C85.2837 113.13 85.5877 113.29 85.993 113.45C86.3983 113.621 86.8303 113.706 87.289 113.706C87.897 113.706 88.409 113.573 88.825 113.306C89.2517 113.05 89.465 112.704 89.465 112.266C89.465 111.84 89.3157 111.525 89.017 111.322C88.729 111.12 88.345 111.018 87.865 111.018C87.5343 111.018 87.2197 111.04 86.921 111.082C86.633 111.136 86.4143 111.189 86.265 111.242L85.641 110.89L86.857 107.386L87.817 107.85L86.953 110.314C87.4117 110.165 87.9343 110.117 88.521 110.17C89.1077 110.224 89.6197 110.4 90.057 110.698C90.4943 111.008 90.713 111.472 90.713 112.09C90.713 112.688 90.537 113.184 90.185 113.578C89.8437 113.984 89.4117 114.282 88.889 114.474C88.3663 114.677 87.8437 114.778 87.321 114.778ZM97.6745 97.4823C97.6745 99.3063 98.0585 100.949 98.8265 102.41C99.5945 103.861 100.651 105.013 101.995 105.866C103.339 106.709 104.869 107.13 106.587 107.13C108.315 107.13 109.845 106.709 111.179 105.866C112.512 105.013 113.557 103.861 114.315 102.41C115.083 100.949 115.467 99.3063 115.467 97.4823C115.467 95.6583 115.083 94.021 114.315 92.5703C113.557 91.1196 112.512 89.973 111.179 89.1303C109.845 88.2876 108.315 87.8663 106.587 87.8663C104.869 87.8663 103.339 88.2876 101.995 89.1303C100.651 89.973 99.5945 91.1196 98.8265 92.5703C98.0585 94.021 97.6745 95.6583 97.6745 97.4823ZM96.3145 97.4823C96.3145 95.9463 96.5705 94.517 97.0825 93.1943C97.6052 91.861 98.3305 90.6983 99.2585 89.7063C100.187 88.7143 101.275 87.941 102.523 87.3863C103.771 86.8316 105.125 86.5543 106.587 86.5543C108.059 86.5543 109.413 86.8316 110.651 87.3863C111.888 87.941 112.971 88.7143 113.899 89.7063C114.827 90.6983 115.541 91.861 116.043 93.1943C116.555 94.517 116.811 95.9463 116.811 97.4823C116.811 99.029 116.555 100.469 116.043 101.802C115.541 103.125 114.827 104.288 113.899 105.29C112.971 106.282 111.888 107.056 110.651 107.61C109.413 108.165 108.059 108.442 106.587 108.442C105.115 108.442 103.755 108.165 102.507 107.61C101.259 107.056 100.171 106.282 99.2425 105.29C98.3252 104.288 97.6052 103.125 97.0825 101.802C96.5705 100.469 96.3145 99.029 96.3145 97.4823ZM101.947 83.7383C102.053 83.3543 102.224 82.9596 102.459 82.5543C102.704 82.149 103.013 81.8076 103.387 81.5303C103.76 81.2423 104.192 81.0983 104.683 81.0983C105.323 81.0983 105.845 81.205 106.251 81.4183C106.656 81.621 107.035 81.829 107.387 82.0423C107.749 82.245 108.171 82.3463 108.651 82.3463C109.077 82.3463 109.408 82.2076 109.643 81.9303C109.888 81.6423 110.043 81.365 110.107 81.0983H111.722C111.605 81.4716 111.419 81.8663 111.163 82.2823C110.917 82.6876 110.603 83.0343 110.219 83.3223C109.835 83.5996 109.397 83.7383 108.907 83.7383C108.267 83.7383 107.739 83.637 107.323 83.4343C106.907 83.221 106.528 83.013 106.187 82.8103C105.856 82.6076 105.493 82.5063 105.099 82.5063C104.704 82.5063 104.373 82.645 104.107 82.9223C103.84 83.1996 103.659 83.4716 103.562 83.7383H101.947ZM120.299 86.9383H132.091V88.2183H121.595V96.8263H131.803V98.1063H121.595V106.778H132.091V108.058H120.299V86.9383ZM142.685 86.5543C143.837 86.5543 144.813 86.693 145.613 86.9703C146.413 87.237 147.037 87.525 147.485 87.8343C147.943 88.133 148.205 88.325 148.269 88.4103L147.485 89.5463C147.325 89.397 147.047 89.189 146.653 88.9223C146.258 88.6556 145.735 88.4103 145.085 88.1863C144.445 87.9623 143.671 87.8503 142.765 87.8503C141.303 87.8503 140.157 88.165 139.325 88.7943C138.493 89.413 138.077 90.2663 138.077 91.3543C138.077 92.0903 138.295 92.7356 138.733 93.2903C139.17 93.8343 139.762 94.3303 140.509 94.7783C141.255 95.2156 142.087 95.6476 143.005 96.0743C143.698 96.3943 144.407 96.7516 145.133 97.1463C145.858 97.541 146.525 98.005 147.133 98.5383C147.751 99.0716 148.247 99.6903 148.621 100.394C149.005 101.098 149.197 101.914 149.197 102.842C149.197 103.653 149.031 104.4 148.701 105.082C148.381 105.754 147.917 106.346 147.309 106.858C146.711 107.36 145.991 107.749 145.149 108.026C144.317 108.304 143.389 108.442 142.365 108.442C141.181 108.442 140.103 108.288 139.133 107.978C138.173 107.669 137.394 107.349 136.797 107.018C136.21 106.688 135.89 106.496 135.837 106.442L136.685 105.242C136.823 105.349 137.053 105.509 137.373 105.722C137.693 105.925 138.093 106.138 138.573 106.362C139.063 106.576 139.629 106.757 140.269 106.906C140.919 107.056 141.639 107.13 142.429 107.13C144.178 107.13 145.506 106.72 146.413 105.898C147.319 105.066 147.773 104.026 147.773 102.778C147.773 101.797 147.479 100.965 146.893 100.282C146.317 99.589 145.581 98.9863 144.685 98.4743C143.799 97.9516 142.887 97.4663 141.949 97.0183C140.967 96.5383 140.077 96.0423 139.277 95.5303C138.477 95.0076 137.837 94.4103 137.357 93.7383C136.887 93.0556 136.653 92.245 136.653 91.3063C136.653 90.3996 136.914 89.589 137.437 88.8743C137.97 88.149 138.69 87.5836 139.597 87.1783C140.514 86.7623 141.543 86.5543 142.685 86.5543ZM170.336 107.146C171.883 107.146 173.19 106.944 174.256 106.538C175.323 106.122 176.07 105.722 176.496 105.338L177.088 106.49C176.63 106.917 175.814 107.349 174.64 107.786C173.467 108.224 172.048 108.442 170.384 108.442C168.827 108.442 167.392 108.16 166.08 107.594C164.779 107.029 163.638 106.25 162.656 105.258C161.686 104.256 160.928 103.098 160.384 101.786C159.851 100.464 159.584 99.045 159.584 97.5303C159.584 96.0156 159.851 94.597 160.384 93.2743C160.918 91.941 161.67 90.773 162.64 89.7703C163.622 88.7676 164.768 87.9836 166.08 87.4183C167.392 86.8423 168.827 86.5543 170.384 86.5543C172.048 86.5543 173.467 86.773 174.64 87.2103C175.814 87.6476 176.63 88.0796 177.088 88.5063L176.496 89.6583C176.07 89.2636 175.323 88.8636 174.256 88.4583C173.19 88.053 171.883 87.8503 170.336 87.8503C169.067 87.8503 167.872 88.0796 166.752 88.5383C165.643 88.997 164.651 89.653 163.776 90.5063C162.912 91.349 162.235 92.3623 161.744 93.5463C161.254 94.7196 161.008 96.0316 161.008 97.4823C161.008 98.9436 161.254 100.266 161.744 101.45C162.235 102.634 162.912 103.653 163.776 104.506C164.651 105.349 165.643 106 166.752 106.458C167.872 106.917 169.067 107.146 170.336 107.146ZM180.706 97.4823C180.706 99.3063 181.09 100.949 181.858 102.41C182.626 103.861 183.682 105.013 185.026 105.866C186.37 106.709 187.9 107.13 189.618 107.13C191.346 107.13 192.876 106.709 194.21 105.866C195.543 105.013 196.588 103.861 197.346 102.41C198.114 100.949 198.498 99.3063 198.498 97.4823C198.498 95.6583 198.114 94.021 197.346 92.5703C196.588 91.1196 195.543 89.973 194.21 89.1303C192.876 88.2876 191.346 87.8663 189.618 87.8663C187.9 87.8663 186.37 88.2876 185.026 89.1303C183.682 89.973 182.626 91.1196 181.858 92.5703C181.09 94.021 180.706 95.6583 180.706 97.4823ZM179.346 97.4823C179.346 95.9463 179.602 94.517 180.114 93.1943C180.636 91.861 181.362 90.6983 182.29 89.7063C183.218 88.7143 184.306 87.941 185.554 87.3863C186.802 86.8316 188.156 86.5543 189.618 86.5543C191.09 86.5543 192.444 86.8316 193.682 87.3863C194.919 87.941 196.002 88.7143 196.93 89.7063C197.858 90.6983 198.572 91.861 199.074 93.1943C199.586 94.517 199.842 95.9463 199.842 97.4823C199.842 99.029 199.586 100.469 199.074 101.802C198.572 103.125 197.858 104.288 196.93 105.29C196.002 106.282 194.919 107.056 193.682 107.61C192.444 108.165 191.09 108.442 189.618 108.442C188.146 108.442 186.786 108.165 185.538 107.61C184.29 107.056 183.202 106.282 182.274 105.29C181.356 104.288 180.636 103.125 180.114 101.802C179.602 100.469 179.346 99.029 179.346 97.4823ZM204.594 88.2823L204.642 88.2983V108.058H203.33V86.9383H205.346L217.954 106.698L217.922 106.714V86.9383H219.218V108.058H217.202L204.594 88.2823ZM228.705 88.2183H222.529V86.9383H236.209V88.2183H230.033V108.058H228.705V88.2183ZM245.582 86.9383H247.102L254.558 108.058H253.15L251.118 102.394H241.566L239.518 108.058H238.094L245.582 86.9383ZM241.95 101.114H250.75L246.366 88.6343H246.318L241.95 101.114ZM245.15 86.0423L244.446 85.1623L249.102 81.4663L250.174 82.8103L245.15 86.0423ZM257.124 86.9383H262.052C263.172 86.9383 264.234 87.0876 265.236 87.3863C266.239 87.6743 267.05 88.181 267.668 88.9063C268.298 89.6316 268.612 90.661 268.612 91.9943C268.612 92.9223 268.426 93.765 268.052 94.5223C267.69 95.2796 267.247 95.893 266.724 96.3623C266.212 96.8316 265.743 97.0823 265.316 97.1143C265.647 97.1356 266.052 97.253 266.532 97.4663C267.023 97.669 267.508 97.9783 267.988 98.3943C268.479 98.7996 268.884 99.317 269.204 99.9463C269.535 100.565 269.7 101.301 269.7 102.154C269.7 103.296 269.487 104.314 269.06 105.21C268.634 106.096 267.962 106.794 267.044 107.306C266.138 107.808 264.954 108.058 263.492 108.058H257.124V86.9383ZM258.42 106.826H263.812C265.05 106.826 265.994 106.602 266.644 106.154C267.306 105.696 267.759 105.114 268.004 104.41C268.25 103.696 268.372 102.97 268.372 102.234C268.372 101.018 267.956 99.989 267.124 99.1463C266.303 98.3036 265.098 97.8823 263.508 97.8823H258.42V106.826ZM258.42 96.6823H263.076C264.047 96.6823 264.842 96.4476 265.46 95.9783C266.079 95.509 266.538 94.9276 266.836 94.2343C267.135 93.541 267.284 92.853 267.284 92.1703C267.284 90.709 266.847 89.6796 265.972 89.0823C265.098 88.4743 263.93 88.1703 262.468 88.1703H258.42V96.6823ZM273.705 86.9383H285.497V88.2183H275.001V96.8263H285.209V98.1063H275.001V106.778H285.497V108.058H273.705V86.9383ZM290.571 86.9383H291.915V108.058H290.571V86.9383ZM302.747 86.5543C303.899 86.5543 304.875 86.693 305.675 86.9703C306.475 87.237 307.099 87.525 307.547 87.8343C308.006 88.133 308.267 88.325 308.331 88.4103L307.547 89.5463C307.387 89.397 307.11 89.189 306.715 88.9223C306.32 88.6556 305.798 88.4103 305.147 88.1863C304.507 87.9623 303.734 87.8503 302.827 87.8503C301.366 87.8503 300.219 88.165 299.387 88.7943C298.555 89.413 298.139 90.2663 298.139 91.3543C298.139 92.0903 298.358 92.7356 298.795 93.2903C299.232 93.8343 299.824 94.3303 300.571 94.7783C301.318 95.2156 302.15 95.6476 303.067 96.0743C303.76 96.3943 304.47 96.7516 305.195 97.1463C305.92 97.541 306.587 98.005 307.195 98.5383C307.814 99.0716 308.31 99.6903 308.683 100.394C309.067 101.098 309.259 101.914 309.259 102.842C309.259 103.653 309.094 104.4 308.763 105.082C308.443 105.754 307.979 106.346 307.371 106.858C306.774 107.36 306.054 107.749 305.211 108.026C304.379 108.304 303.451 108.442 302.427 108.442C301.243 108.442 300.166 108.288 299.195 107.978C298.235 107.669 297.456 107.349 296.859 107.018C296.272 106.688 295.952 106.496 295.899 106.442L296.747 105.242C296.886 105.349 297.115 105.509 297.435 105.722C297.755 105.925 298.155 106.138 298.635 106.362C299.126 106.576 299.691 106.757 300.331 106.906C300.982 107.056 301.702 107.13 302.491 107.13C304.24 107.13 305.568 106.72 306.475 105.898C307.382 105.066 307.835 104.026 307.835 102.778C307.835 101.797 307.542 100.965 306.955 100.282C306.379 99.589 305.643 98.9863 304.747 98.4743C303.862 97.9516 302.95 97.4663 302.011 97.0183C301.03 96.5383 300.139 96.0423 299.339 95.5303C298.539 95.0076 297.899 94.4103 297.419 93.7383C296.95 93.0556 296.715 92.245 296.715 91.3063C296.715 90.3996 296.976 89.589 297.499 88.8743C298.032 88.149 298.752 87.5836 299.659 87.1783C300.576 86.7623 301.606 86.5543 302.747 86.5543Z" fill="white"/>
</g>
<defs>
<filter id="filter0_d_4_17" x="0.479996" y="9.48798" width="252.379" height="73.664" filterUnits="userSpaceOnUse" color-interpolation-filters="sRGB">
<feFlood flood-opacity="0" result="BackgroundImageFix"/>
<feColorMatrix in="SourceAlpha" type="matrix" values="0 0 0 0 0 0 0 0 0 0 0 0 0 0 0 0 0 0 127 0" result="hardAlpha"/>
<feOffset dy="4"/>
<feGaussianBlur stdDeviation="2"/>
<feComposite in2="hardAlpha" operator="out"/>
<feColorMatrix type="matrix" values="0 0 0 0 0 0 0 0 0 0 0 0 0 0 0 0 0 0 0.25 0"/>
<feBlend mode="normal" in2="BackgroundImageFix" result="effect1_dropShadow_4_17"/>
<feBlend mode="normal" in="SourceGraphic" in2="effect1_dropShadow_4_17" result="shape"/>
</filter>
<filter id="filter1_d_4_17" x="5.024" y="81.0983" width="306.535" height="34.9801" filterUnits="userSpaceOnUse" color-interpolation-filters="sRGB">
<feFlood flood-opacity="0" result="BackgroundImageFix"/>
<feColorMatrix in="SourceAlpha" type="matrix" values="0 0 0 0 0 0 0 0 0 0 0 0 0 0 0 0 0 0 127 0" result="hardAlpha"/>
<feOffset dx="2" dy="1"/>
<feGaussianBlur stdDeviation="0.15"/>
<feComposite in2="hardAlpha" operator="out"/>
<feColorMatrix type="matrix" values="0 0 0 0 0 0 0 0 0 0 0 0 0 0 0 0 0 0 0.25 0"/>
<feBlend mode="normal" in2="BackgroundImageFix" result="effect1_dropShadow_4_17"/>
<feBlend mode="normal" in="SourceGraphic" in2="effect1_dropShadow_4_17" result="shape"/>
</filter>
</defs>
</svg>
