<svg width="278" height="278" viewBox="0 0 278 278" fill="none" xmlns="http://www.w3.org/2000/svg">
<path d="M180.7 139C180.7 150.06 176.307 160.666 168.486 168.486C160.666 176.307 150.06 180.7 139 180.7C127.941 180.7 117.334 176.307 109.514 168.486C101.693 160.666 97.3001 150.06 97.3001 139C97.3093 136.619 97.5364 134.302 97.9812 132.05H83.4001V187.608C83.4001 191.473 86.5276 194.6 90.3918 194.6H187.622C189.474 194.596 191.249 193.858 192.557 192.547C193.865 191.237 194.6 189.46 194.6 187.608V132.05H180.019C180.464 134.302 180.691 136.619 180.7 139ZM139 166.8C142.652 166.799 146.267 166.079 149.641 164.681C153.014 163.282 156.079 161.233 158.661 158.651C161.242 156.068 163.289 153.002 164.686 149.628C166.083 146.254 166.801 142.638 166.8 138.986C166.799 135.334 166.079 131.719 164.681 128.345C163.282 124.972 161.233 121.907 158.651 119.326C156.068 116.744 153.002 114.697 149.628 113.3C146.254 111.904 142.638 111.185 138.986 111.186C131.611 111.188 124.539 114.119 119.326 119.336C114.112 124.552 111.184 131.625 111.186 139C111.188 146.375 114.119 153.447 119.336 158.661C124.552 163.874 131.625 166.802 139 166.8ZM172.36 109.81H189.026C189.575 109.812 190.119 109.705 190.626 109.497C191.134 109.288 191.595 108.981 191.984 108.594C192.372 108.206 192.681 107.746 192.891 107.239C193.102 106.732 193.21 106.189 193.21 105.64V88.974C193.212 88.424 193.105 87.8791 192.895 87.3707C192.686 86.8622 192.378 86.4003 191.989 86.0114C191.6 85.6225 191.138 85.3144 190.629 85.1048C190.121 84.8952 189.576 84.7882 189.026 84.7901H172.36C171.81 84.7882 171.265 84.8952 170.757 85.1048C170.248 85.3144 169.786 85.6225 169.398 86.0114C169.009 86.4003 168.701 86.8622 168.491 87.3707C168.281 87.8791 168.174 88.424 168.176 88.974V105.64C168.19 107.934 170.067 109.81 172.36 109.81ZM139 5.56006C103.61 5.56006 69.6686 19.6189 44.6437 44.6437C19.6189 69.6686 5.56006 103.61 5.56006 139C5.56006 174.391 19.6189 208.332 44.6437 233.356C69.6686 258.381 103.61 272.44 139 272.44C156.524 272.44 173.876 268.989 190.065 262.283C206.255 255.577 220.965 245.747 233.356 233.356C245.747 220.965 255.577 206.255 262.283 190.065C268.989 173.876 272.44 156.524 272.44 139C272.44 121.476 268.989 104.124 262.283 87.9348C255.577 71.7451 245.747 57.0348 233.356 44.6437C220.965 32.2527 206.255 22.4236 190.065 15.7176C173.876 9.01159 156.524 5.56006 139 5.56006ZM208.5 193.057C208.5 201.55 201.55 208.5 193.057 208.5H84.943C76.4501 208.5 69.5001 201.55 69.5001 193.057V84.943C69.5001 76.4501 76.4501 69.5001 84.943 69.5001H193.057C201.55 69.5001 208.5 76.4501 208.5 84.943V193.057Z" fill="#DD2A7B"/>
</svg>
