<svg width="92" height="92" viewBox="0 0 92 92" fill="none" xmlns="http://www.w3.org/2000/svg">
<path d="M45.7007 0.00770777C37.5382 0.00532171 29.5241 2.18976 22.4919 6.33384C15.4596 10.4779 9.66601 16.4303 5.71353 23.572C1.76104 30.7137 -0.205962 38.7839 0.0170609 46.9433C0.240084 55.1027 2.64499 63.0534 6.98169 69.9685L8.06857 71.6952L3.45127 88.5456L20.7411 84.0131L22.4061 84.9998C29.4418 89.1746 37.4733 91.3742 45.6544 91.3669H45.6775C57.7935 91.3689 69.4141 86.5578 77.9828 77.992C86.5516 69.4261 91.3666 57.8071 91.3687 45.6911C91.3707 33.5751 86.5596 21.9546 77.9938 13.3858C69.4279 4.81707 57.8089 0.00204456 45.6929 0L45.7007 0.00770777ZM72.5565 65.2973C71.5475 66.9671 70.2032 68.4095 68.6084 69.5333C67.0136 70.6571 65.203 71.4379 63.2911 71.8263C60.4054 72.322 57.4439 72.1372 54.6423 71.2867C51.9839 70.4625 49.3721 69.495 46.8184 68.3883C37.335 63.6291 29.2518 56.4863 23.3619 47.6606C20.1477 43.5757 18.1972 38.6405 17.7502 33.4619C17.7146 31.3247 18.1238 29.2034 18.9519 27.2328C19.7799 25.2622 21.0087 23.4853 22.5602 22.015C23.0206 21.4933 23.583 21.0717 24.2128 20.776C24.8426 20.4803 25.5263 20.317 26.2217 20.296C27.1313 20.296 28.0486 20.296 28.8502 20.3423C29.6982 20.3808 30.8236 20.0185 31.9336 22.701C33.0898 25.4452 35.834 32.2054 36.1732 32.8915C36.3895 33.2516 36.5134 33.6597 36.5335 34.0794C36.5537 34.4991 36.4696 34.9172 36.2888 35.2965C35.9445 36.1219 35.4823 36.8931 34.9167 37.5858C34.2229 38.3875 33.4752 39.3742 32.8586 39.9908C32.1648 40.6769 31.4557 41.4169 32.2496 42.789C34.3149 46.3176 36.8889 49.5227 39.8886 52.301C43.1498 55.1928 46.887 57.4982 50.9346 59.1152C52.3067 59.809 53.1084 59.6856 53.91 58.7683C54.7117 57.851 57.3402 54.76 58.2575 53.3879C59.1748 52.0158 60.0844 52.2471 61.3409 52.7019C62.5973 53.1567 69.3575 56.479 70.7296 57.1727C72.1017 57.8665 73.019 58.1979 73.3581 58.7683C73.7287 60.9764 73.4502 63.2445 72.5565 65.2973Z" fill="#4FCE5D"/>
</svg>
