<svg width="115" height="115" viewBox="0 0 115 115" fill="none" xmlns="http://www.w3.org/2000/svg">
<g filter="url(#filter0_d_288_93)">
<circle cx="57.5" cy="53.5" r="53.5" fill="#7BA2B8" fill-opacity="0.73" shape-rendering="crispEdges"/>
</g>
<path d="M28 66C28.0017 67.5908 28.6343 69.116 29.7592 70.2408C30.884 71.3657 32.4092 71.9983 34 72H50.735L50.235 76H44C43.4696 76 42.9609 76.2107 42.5858 76.5858C42.2107 76.9609 42 77.4696 42 78C42 78.5304 42.2107 79.0391 42.5858 79.4142C42.9609 79.7893 43.4696 80 44 80H72C72.5304 80 73.0391 79.7893 73.4142 79.4142C73.7893 79.0391 74 78.5304 74 78C74 77.4696 73.7893 76.9609 73.4142 76.5858C73.0391 76.2107 72.5304 76 72 76H65.765L65.265 72H82C83.5908 71.9983 85.116 71.3657 86.2408 70.2408C87.3657 69.116 87.9983 67.5908 88 66V60H28V66ZM58 64C58.3956 64 58.7822 64.1173 59.1111 64.3371C59.44 64.5568 59.6964 64.8692 59.8478 65.2346C59.9991 65.6001 60.0387 66.0022 59.9616 66.3902C59.8844 66.7781 59.6939 67.1345 59.4142 67.4142C59.1345 67.6939 58.7781 67.8844 58.3902 67.9616C58.0022 68.0387 57.6001 67.9991 57.2346 67.8478C56.8692 67.6964 56.5568 67.44 56.3371 67.1111C56.1173 66.7822 56 66.3956 56 66C56 65.4696 56.2107 64.9609 56.5858 64.5858C56.9609 64.2107 57.4696 64 58 64ZM88 34C87.9983 32.4092 87.3657 30.884 86.2408 29.7592C85.116 28.6343 83.5908 28.0017 82 28H34C32.4092 28.0017 30.884 28.6343 29.7592 29.7592C28.6343 30.884 28.0017 32.4092 28 34V58H88V34Z" fill="#0C3851"/>
<defs>
<filter id="filter0_d_288_93" x="0" y="0" width="115" height="115" filterUnits="userSpaceOnUse" color-interpolation-filters="sRGB">
<feFlood flood-opacity="0" result="BackgroundImageFix"/>
<feColorMatrix in="SourceAlpha" type="matrix" values="0 0 0 0 0 0 0 0 0 0 0 0 0 0 0 0 0 0 127 0" result="hardAlpha"/>
<feOffset dy="4"/>
<feGaussianBlur stdDeviation="2"/>
<feComposite in2="hardAlpha" operator="out"/>
<feColorMatrix type="matrix" values="0 0 0 0 0 0 0 0 0 0 0 0 0 0 0 0 0 0 0.25 0"/>
<feBlend mode="normal" in2="BackgroundImageFix" result="effect1_dropShadow_288_93"/>
<feBlend mode="normal" in="SourceGraphic" in2="effect1_dropShadow_288_93" result="shape"/>
</filter>
</defs>
</svg>
