<svg width="115" height="115" viewBox="0 0 115 115" fill="none" xmlns="http://www.w3.org/2000/svg">
<g filter="url(#filter0_d_288_90)">
<circle cx="57.5" cy="53.5" r="53.5" fill="#7BA2B8" fill-opacity="0.73" shape-rendering="crispEdges"/>
</g>
<path d="M32 34.375C32 31.96 33.96 30 36.375 30H70.125C72.54 30 74.5 31.96 74.5 34.375V47.5H67C65.6739 47.5 64.4021 48.0268 63.4645 48.9645C62.5268 49.9021 62 51.1739 62 52.5V60H36.375C35.2147 60 34.1019 59.5391 33.2814 58.7186C32.4609 57.8981 32 56.7853 32 55.625V34.375ZM39.5 35.625C39.5 36.1223 39.3025 36.5992 38.9508 36.9508C38.5992 37.3025 38.1223 37.5 37.625 37.5H35.125V41.25H37.625C39.1168 41.25 40.5476 40.6574 41.6025 39.6025C42.6574 38.5476 43.25 37.1168 43.25 35.625V33.125H39.5V35.625ZM53.25 51.25C54.7418 51.25 56.1726 50.6574 57.2275 49.6025C58.2824 48.5476 58.875 47.1168 58.875 45.625C58.875 44.1332 58.2824 42.7024 57.2275 41.6475C56.1726 40.5926 54.7418 40 53.25 40C51.7582 40 50.3274 40.5926 49.2725 41.6475C48.2176 42.7024 47.625 44.1332 47.625 45.625C47.625 47.1168 48.2176 48.5476 49.2725 49.6025C50.3274 50.6574 51.7582 51.25 53.25 51.25ZM37.625 52.5C38.1223 52.5 38.5992 52.6975 38.9508 53.0492C39.3025 53.4008 39.5 53.8777 39.5 54.375V56.875H43.25V54.375C43.25 52.8832 42.6574 51.4524 41.6025 50.3975C40.5476 49.3426 39.1168 48.75 37.625 48.75H35.125V52.5H37.625ZM68.875 37.5C68.3777 37.5 67.9008 37.3025 67.5492 36.9508C67.1975 36.5992 67 36.1223 67 35.625V33.125H63.25V35.625C63.25 37.1168 63.8426 38.5476 64.8975 39.6025C65.9524 40.6574 67.3832 41.25 68.875 41.25H71.375V37.5H68.875ZM38.0025 63.75H62V67.5H44.5C43.1831 67.5004 41.8893 67.154 40.7487 66.4958C39.6081 65.8375 38.661 64.8905 38.0025 63.75ZM82 42.5V47.5H78.25V36.0025C79.3905 36.661 80.3375 37.6081 80.9958 38.7487C81.654 39.8893 82.0004 41.1831 82 42.5ZM68.25 50C67.2554 50 66.3016 50.3951 65.5984 51.0983C64.8951 51.8016 64.5 52.7554 64.5 53.75V73.75C64.5 74.7446 64.8951 75.6984 65.5984 76.4016C66.3016 77.1049 67.2554 77.5 68.25 77.5H80.75C81.7446 77.5 82.6984 77.1049 83.4016 76.4016C84.1049 75.6984 84.5 74.7446 84.5 73.75V53.75C84.5 52.7554 84.1049 51.8016 83.4016 51.0983C82.6984 50.3951 81.7446 50 80.75 50H68.25ZM69.5 61.25H72C72.3315 61.25 72.6495 61.3817 72.8839 61.6161C73.1183 61.8505 73.25 62.1685 73.25 62.5C73.25 62.8315 73.1183 63.1495 72.8839 63.3839C72.6495 63.6183 72.3315 63.75 72 63.75H69.5C69.1685 63.75 68.8505 63.6183 68.6161 63.3839C68.3817 63.1495 68.25 62.8315 68.25 62.5C68.25 62.1685 68.3817 61.8505 68.6161 61.6161C68.8505 61.3817 69.1685 61.25 69.5 61.25ZM77 61.25H79.5C79.8315 61.25 80.1495 61.3817 80.3839 61.6161C80.6183 61.8505 80.75 62.1685 80.75 62.5C80.75 62.8315 80.6183 63.1495 80.3839 63.3839C80.1495 63.6183 79.8315 63.75 79.5 63.75H77C76.6685 63.75 76.3505 63.6183 76.1161 63.3839C75.8817 63.1495 75.75 62.8315 75.75 62.5C75.75 62.1685 75.8817 61.8505 76.1161 61.6161C76.3505 61.3817 76.6685 61.25 77 61.25ZM69.5 66.25H72C72.3315 66.25 72.6495 66.3817 72.8839 66.6161C73.1183 66.8505 73.25 67.1685 73.25 67.5C73.25 67.8315 73.1183 68.1495 72.8839 68.3839C72.6495 68.6183 72.3315 68.75 72 68.75H69.5C69.1685 68.75 68.8505 68.6183 68.6161 68.3839C68.3817 68.1495 68.25 67.8315 68.25 67.5C68.25 67.1685 68.3817 66.8505 68.6161 66.6161C68.8505 66.3817 69.1685 66.25 69.5 66.25ZM77 66.25H79.5C79.8315 66.25 80.1495 66.3817 80.3839 66.6161C80.6183 66.8505 80.75 67.1685 80.75 67.5C80.75 67.8315 80.6183 68.1495 80.3839 68.3839C80.1495 68.6183 79.8315 68.75 79.5 68.75H77C76.6685 68.75 76.3505 68.6183 76.1161 68.3839C75.8817 68.1495 75.75 67.8315 75.75 67.5C75.75 67.1685 75.8817 66.8505 76.1161 66.6161C76.3505 66.3817 76.6685 66.25 77 66.25ZM69.5 71.25H72C72.3315 71.25 72.6495 71.3817 72.8839 71.6161C73.1183 71.8505 73.25 72.1685 73.25 72.5C73.25 72.8315 73.1183 73.1495 72.8839 73.3839C72.6495 73.6183 72.3315 73.75 72 73.75H69.5C69.1685 73.75 68.8505 73.6183 68.6161 73.3839C68.3817 73.1495 68.25 72.8315 68.25 72.5C68.25 72.1685 68.3817 71.8505 68.6161 71.6161C68.8505 71.3817 69.1685 71.25 69.5 71.25ZM77 71.25H79.5C79.8315 71.25 80.1495 71.3817 80.3839 71.6161C80.6183 71.8505 80.75 72.1685 80.75 72.5C80.75 72.8315 80.6183 73.1495 80.3839 73.3839C80.1495 73.6183 79.8315 73.75 79.5 73.75H77C76.6685 73.75 76.3505 73.6183 76.1161 73.3839C75.8817 73.1495 75.75 72.8315 75.75 72.5C75.75 72.1685 75.8817 71.8505 76.1161 71.6161C76.3505 71.3817 76.6685 71.25 77 71.25ZM68.25 55C68.25 54.6685 68.3817 54.3505 68.6161 54.1161C68.8505 53.8817 69.1685 53.75 69.5 53.75H79.5C79.8315 53.75 80.1495 53.8817 80.3839 54.1161C80.6183 54.3505 80.75 54.6685 80.75 55V57.5C80.75 57.8315 80.6183 58.1495 80.3839 58.3839C80.1495 58.6183 79.8315 58.75 79.5 58.75H69.5C69.1685 58.75 68.8505 58.6183 68.6161 58.3839C68.3817 58.1495 68.25 57.8315 68.25 57.5V55Z" fill="#0C3851"/>
<defs>
<filter id="filter0_d_288_90" x="0" y="0" width="115" height="115" filterUnits="userSpaceOnUse" color-interpolation-filters="sRGB">
<feFlood flood-opacity="0" result="BackgroundImageFix"/>
<feColorMatrix in="SourceAlpha" type="matrix" values="0 0 0 0 0 0 0 0 0 0 0 0 0 0 0 0 0 0 127 0" result="hardAlpha"/>
<feOffset dy="4"/>
<feGaussianBlur stdDeviation="2"/>
<feComposite in2="hardAlpha" operator="out"/>
<feColorMatrix type="matrix" values="0 0 0 0 0 0 0 0 0 0 0 0 0 0 0 0 0 0 0.25 0"/>
<feBlend mode="normal" in2="BackgroundImageFix" result="effect1_dropShadow_288_90"/>
<feBlend mode="normal" in="SourceGraphic" in2="effect1_dropShadow_288_90" result="shape"/>
</filter>
</defs>
</svg>
