<svg width="115" height="115" viewBox="0 0 115 115" fill="none" xmlns="http://www.w3.org/2000/svg">
<g filter="url(#filter0_d_288_91)">
<circle cx="57.5" cy="53.5" r="53.5" fill="#7BA2B8" fill-opacity="0.73" shape-rendering="crispEdges"/>
</g>
<path d="M65.625 29.125C66.3433 29.125 67.0322 29.4103 67.5401 29.9183C68.048 30.4262 68.3333 31.115 68.3333 31.8333V37.25H81.875C82.5933 37.25 83.2822 37.5353 83.7901 38.0433C84.298 38.5512 84.5833 39.24 84.5833 39.9583V75.1667C84.5833 75.885 84.298 76.5738 83.7901 77.0817C83.2822 77.5897 82.5933 77.875 81.875 77.875H33.125C32.4067 77.875 31.7178 77.5897 31.2099 77.0817C30.702 76.5738 30.4167 75.885 30.4167 75.1667V39.9583C30.4167 39.24 30.702 38.5512 31.2099 38.0433C31.7178 37.5353 32.4067 37.25 33.125 37.25H46.6667V31.8333C46.6667 31.115 46.952 30.4262 47.4599 29.9183C47.9678 29.4103 48.6567 29.125 49.375 29.125H65.625ZM46.6667 42.6667H41.25V72.4583H46.6667V42.6667ZM73.75 42.6667H68.3333V72.4583H73.75V42.6667ZM62.9167 34.5417H52.0833V37.25H62.9167V34.5417Z" fill="#0C3851"/>
<defs>
<filter id="filter0_d_288_91" x="0" y="0" width="115" height="115" filterUnits="userSpaceOnUse" color-interpolation-filters="sRGB">
<feFlood flood-opacity="0" result="BackgroundImageFix"/>
<feColorMatrix in="SourceAlpha" type="matrix" values="0 0 0 0 0 0 0 0 0 0 0 0 0 0 0 0 0 0 127 0" result="hardAlpha"/>
<feOffset dy="4"/>
<feGaussianBlur stdDeviation="2"/>
<feComposite in2="hardAlpha" operator="out"/>
<feColorMatrix type="matrix" values="0 0 0 0 0 0 0 0 0 0 0 0 0 0 0 0 0 0 0.25 0"/>
<feBlend mode="normal" in2="BackgroundImageFix" result="effect1_dropShadow_288_91"/>
<feBlend mode="normal" in="SourceGraphic" in2="effect1_dropShadow_288_91" result="shape"/>
</filter>
</defs>
</svg>
