<svg width="115" height="115" viewBox="0 0 115 115" fill="none" xmlns="http://www.w3.org/2000/svg">
<g filter="url(#filter0_d_288_88)">
<circle cx="57.5" cy="53.5" r="53.5" fill="#7BA2B8" fill-opacity="0.73" shape-rendering="crispEdges"/>
</g>
<path d="M57.6771 74.6666C57.8493 74.6666 58.0215 74.6236 58.1937 74.5375C58.366 74.4514 58.4951 74.3652 58.5812 74.2791L79.7646 53.0958C80.2812 52.5791 80.6584 51.9979 80.8961 51.352C81.1338 50.7062 81.2517 50.0604 81.25 49.4145C81.25 48.7257 81.132 48.0686 80.8961 47.4435C80.6601 46.8183 80.283 46.2698 79.7646 45.7979L68.7854 34.8187C68.3118 34.302 67.7624 33.9257 67.1372 33.6898C66.5121 33.4538 65.8568 33.335 65.1713 33.3333C64.5255 33.3333 63.8797 33.4521 63.2338 33.6898C62.588 33.9275 62.0067 34.3038 61.4901 34.8187L60.7797 35.5291L65.5588 40.3729C66.2047 40.9757 66.6783 41.6645 66.9797 42.4395C67.2811 43.2145 67.4317 44.0326 67.4317 44.8937C67.4317 46.702 66.8186 48.2202 65.5924 49.4481C64.3662 50.6761 62.848 51.2892 61.038 51.2875C60.1769 51.2875 59.3485 51.1368 58.5528 50.8354C57.7572 50.534 57.0571 50.0819 56.4526 49.4791L51.6062 44.7L40.3042 56.002C40.175 56.1312 40.0786 56.2716 40.0148 56.4231C39.9511 56.5747 39.9184 56.7357 39.9167 56.9062C39.9167 57.2507 40.0458 57.5632 40.3042 57.844C40.5625 58.1247 40.8639 58.2642 41.2083 58.2625C41.3806 58.2625 41.5528 58.2194 41.725 58.1333C41.8972 58.0472 42.0264 57.9611 42.1125 57.875L50.8958 49.0916L54.5125 52.7083L45.7937 61.4916C45.6646 61.6208 45.5681 61.7612 45.5044 61.9127C45.4407 62.0643 45.408 62.2253 45.4062 62.3958C45.4062 62.7402 45.5354 63.0416 45.7937 63.3C46.0521 63.5583 46.3535 63.6875 46.6979 63.6875C46.8701 63.6875 47.0424 63.6444 47.2146 63.5583C47.3868 63.4722 47.516 63.3861 47.6021 63.3L56.3854 54.5812L60.0021 58.1979L51.2833 66.9812C51.1542 67.0673 51.0577 67.1965 50.994 67.3687C50.9303 67.5409 50.8976 67.7132 50.8958 67.8854C50.8958 68.2298 51.025 68.5312 51.2833 68.7895C51.5417 69.0479 51.8431 69.177 52.1875 69.177C52.3597 69.177 52.5216 69.1443 52.6732 69.0789C52.8247 69.0134 52.9642 68.917 53.0917 68.7895L61.875 60.0708L65.4917 63.6875L56.7083 72.4708C56.5792 72.6 56.4827 72.7395 56.419 72.8893C56.3553 73.0391 56.3226 73.201 56.3208 73.375C56.3208 73.7194 56.4612 74.0208 56.7419 74.2791C57.0226 74.5375 57.3344 74.6666 57.6771 74.6666ZM57.6125 79.8333C56.0194 79.8333 54.6098 79.3063 53.3836 78.2523C52.1574 77.1983 51.4357 75.8739 51.2187 74.2791C49.7549 74.0639 48.5278 73.4611 47.5375 72.4708C46.5472 71.4805 45.9444 70.2534 45.7292 68.7895C44.2653 68.5743 43.0494 67.9612 42.0815 66.9502C41.1136 65.9393 40.5212 64.7225 40.3042 63.3C38.6681 63.0847 37.3333 62.3743 36.3 61.1687C35.2667 59.9632 34.75 58.5423 34.75 56.9062C34.75 56.0451 34.9119 55.2167 35.2357 54.421C35.5594 53.6254 36.0219 52.9253 36.6229 52.3208L51.6062 37.402L60.0667 45.8625C60.1528 45.9916 60.2819 46.0889 60.4542 46.1544C60.6264 46.2198 60.7986 46.2517 60.9708 46.25C61.3583 46.25 61.6812 46.132 61.9396 45.896C62.1979 45.6601 62.3271 45.3475 62.3271 44.9583C62.3271 44.7861 62.2944 44.6138 62.2289 44.4416C62.1635 44.2694 62.067 44.1402 61.9396 44.0541L52.7042 34.8187C52.2306 34.302 51.682 33.9257 51.0586 33.6898C50.4351 33.4538 49.7781 33.335 49.0875 33.3333C48.4417 33.3333 47.7958 33.4521 47.15 33.6898C46.5042 33.9275 45.9229 34.3038 45.4062 34.8187L36.3 43.9895C35.9125 44.377 35.5896 44.8291 35.3312 45.3458C35.0729 45.8625 34.9007 46.3791 34.8146 46.8958C34.7285 47.4125 34.7285 47.9403 34.8146 48.4794C34.9007 49.0184 35.0729 49.5239 35.3312 49.9958L31.5854 53.7416C30.8535 52.7513 30.3153 51.6646 29.9708 50.4815C29.6264 49.2983 29.4972 48.1031 29.5833 46.8958C29.6694 45.6885 29.9708 44.5157 30.4875 43.3773C31.0042 42.2389 31.7146 41.2159 32.6187 40.3083L41.725 31.202C42.7583 30.2118 43.9105 29.4583 45.1815 28.9416C46.4525 28.425 47.7545 28.1666 49.0875 28.1666C50.4205 28.1666 51.7234 28.425 52.9961 28.9416C54.2688 29.4583 55.3986 30.2118 56.3854 31.202L57.0958 31.9125L57.8062 31.202C58.8396 30.2118 59.9917 29.4583 61.2627 28.9416C62.5337 28.425 63.8357 28.1666 65.1687 28.1666C66.5017 28.1666 67.8046 28.425 69.0773 28.9416C70.3501 29.4583 71.4798 30.2118 72.4667 31.202L83.3812 42.1166C84.3715 43.1069 85.125 44.2479 85.6417 45.5395C86.1583 46.8312 86.4167 48.1444 86.4167 49.4791C86.4167 50.8138 86.1583 52.1167 85.6417 53.3877C85.125 54.6587 84.3715 55.7885 83.3812 56.777L62.1979 77.8958C61.5951 78.4986 60.8959 78.9722 60.1002 79.3166C59.3046 79.6611 58.4753 79.8333 57.6125 79.8333Z" fill="#0C3851"/>
<defs>
<filter id="filter0_d_288_88" x="0" y="0" width="115" height="115" filterUnits="userSpaceOnUse" color-interpolation-filters="sRGB">
<feFlood flood-opacity="0" result="BackgroundImageFix"/>
<feColorMatrix in="SourceAlpha" type="matrix" values="0 0 0 0 0 0 0 0 0 0 0 0 0 0 0 0 0 0 127 0" result="hardAlpha"/>
<feOffset dy="4"/>
<feGaussianBlur stdDeviation="2"/>
<feComposite in2="hardAlpha" operator="out"/>
<feColorMatrix type="matrix" values="0 0 0 0 0 0 0 0 0 0 0 0 0 0 0 0 0 0 0.25 0"/>
<feBlend mode="normal" in2="BackgroundImageFix" result="effect1_dropShadow_288_88"/>
<feBlend mode="normal" in="SourceGraphic" in2="effect1_dropShadow_288_88" result="shape"/>
</filter>
</defs>
</svg>
