<svg width="82" height="82" viewBox="0 0 82 82" fill="none" xmlns="http://www.w3.org/2000/svg">
<path d="M41 30.75C38.2815 30.75 35.6744 31.8299 33.7522 33.7522C31.8299 35.6744 30.75 38.2815 30.75 41C30.75 43.7185 31.8299 46.3256 33.7522 48.2478C35.6744 50.1701 38.2815 51.25 41 51.25C43.7185 51.25 46.3256 50.1701 48.2479 48.2478C50.1701 46.3256 51.25 43.7185 51.25 41C51.25 38.2815 50.1701 35.6744 48.2479 33.7522C46.3256 31.8299 43.7185 30.75 41 30.75ZM41 58.0833C36.4692 58.0833 32.124 56.2835 28.9203 53.0797C25.7165 49.876 23.9167 45.5308 23.9167 41C23.9167 36.4692 25.7165 32.124 28.9203 28.9203C32.124 25.7165 36.4692 23.9167 41 23.9167C45.5308 23.9167 49.876 25.7165 53.0798 28.9203C56.2835 32.124 58.0834 36.4692 58.0834 41C58.0834 45.5308 56.2835 49.876 53.0798 53.0797C49.876 56.2835 45.5308 58.0833 41 58.0833ZM41 15.375C23.9167 15.375 9.32752 26.0008 3.41669 41C9.32752 55.9992 23.9167 66.625 41 66.625C58.0834 66.625 72.6725 55.9992 78.5834 41C72.6725 26.0008 58.0834 15.375 41 15.375Z" fill="#0C3851"/>
</svg>
