<svg width="76" height="76" viewBox="0 0 76 76" fill="none" xmlns="http://www.w3.org/2000/svg">
<path d="M38 6.33325C40.8373 6.33325 43.586 6.70692 46.2017 7.40675L39.4693 14.1359C38.9586 14.6487 38.5081 15.2182 38.1267 15.8333H38C33.6159 15.8333 29.3302 17.1333 25.6849 19.569C22.0396 22.0047 19.1984 25.4667 17.5207 29.5171C15.8429 33.5675 15.404 38.0245 16.2593 42.3244C17.1146 46.6243 19.2257 50.5741 22.3258 53.6741C25.4259 56.7742 29.3756 58.8854 33.6755 59.7407C37.9754 60.596 42.4324 60.157 46.4828 58.4793C50.5333 56.8015 53.9952 53.9604 56.4309 50.3151C58.8666 46.6698 60.1667 42.3841 60.1667 37.9999V37.8733C60.7789 37.4933 61.3436 37.0446 61.8608 36.5274L68.5932 29.7983C69.293 32.4139 69.6667 35.1626 69.6667 37.9999C69.6667 55.4894 55.4895 69.6666 38 69.6666C20.5105 69.6666 6.33334 55.4894 6.33334 37.9999C6.33334 20.5104 20.5105 6.33325 38 6.33325ZM36.689 22.2204C36.689 24.9153 36.556 27.6481 36.7017 30.3398L34.9917 32.0498C34.4035 32.638 33.9368 33.3363 33.6185 34.1049C33.3002 34.8734 33.1363 35.6971 33.1363 36.529C33.1363 37.3609 33.3002 38.1846 33.6185 38.9532C33.9368 39.7217 34.4035 40.42 34.9917 41.0083C35.5799 41.5965 36.2782 42.0631 37.0468 42.3814C37.8153 42.6998 38.6391 42.8636 39.4709 42.8636C40.3028 42.8636 41.1265 42.6998 41.8951 42.3814C42.6636 42.0631 43.362 41.5965 43.9502 41.0083L45.6602 39.2983C48.3518 39.4439 51.0815 39.3109 53.7795 39.3109C53.5294 42.3203 52.4238 45.1954 50.5933 47.5972C48.7628 49.9989 46.2836 51.8271 43.4481 52.866C40.6127 53.905 37.5393 54.1115 34.5904 53.4611C31.6415 52.8107 28.9401 51.3305 26.8047 49.1952C24.6694 47.0599 23.1893 44.3585 22.5389 41.4095C21.8885 38.4606 22.0949 35.3872 23.1339 32.5518C24.1729 29.7164 26.001 27.2372 28.4028 25.4066C30.8045 23.5761 33.6796 22.4706 36.689 22.2204ZM58.596 6.73542C59.174 6.97507 59.6681 7.38059 60.0158 7.90078C60.3635 8.42098 60.5494 9.03253 60.5498 9.65825V15.4533H66.3417C66.9679 15.4534 67.58 15.6392 68.1006 15.9871C68.6213 16.3351 69.027 16.8296 69.2667 17.4082C69.5063 17.9867 69.569 18.6233 69.4469 19.2375C69.3247 19.8517 69.0232 20.4159 68.5805 20.8588L57.38 32.0466C56.7863 32.6405 55.981 32.9742 55.1412 32.9744H47.5L41.7113 38.7663C41.1171 39.3604 40.3112 39.6943 39.4709 39.6943C38.6306 39.6943 37.8247 39.3604 37.2305 38.7663C36.6363 38.1721 36.3025 37.3662 36.3025 36.5258C36.3025 35.6855 36.6363 34.8796 37.2305 34.2854L43.0223 28.4999V20.8556C43.022 20.4392 43.1038 20.0269 43.263 19.6422C43.4222 19.2575 43.6557 18.9079 43.9502 18.6136L55.1443 7.41942C55.5872 6.9763 56.1515 6.67449 56.7659 6.55217C57.3803 6.42985 58.0172 6.49252 58.596 6.73225" fill="#0C3851"/>
</svg>
