<svg width="116" height="115" viewBox="0 0 116 115" fill="none" xmlns="http://www.w3.org/2000/svg">
<g filter="url(#filter0_d_288_92)">
<ellipse cx="58" cy="53.5" rx="54" ry="53.5" fill="#7BA2B8" fill-opacity="0.73" shape-rendering="crispEdges"/>
</g>
<path d="M42.6667 27.3334C41.0754 27.3334 39.5493 27.9655 38.424 29.0907C37.2988 30.216 36.6667 31.7421 36.6667 33.3334V74.6667C36.6667 76.258 37.2988 77.7841 38.424 78.9093C39.5493 80.0346 41.0754 80.6667 42.6667 80.6667H62.6667C64.2483 80.6668 65.766 80.0423 66.8897 78.9292C68.0133 77.8161 68.6519 76.3043 68.6667 74.7227V70.6694C68.6667 70.1389 68.456 69.6302 68.0809 69.2552C67.7058 68.8801 67.1971 68.6694 66.6667 68.6694C65.4587 68.6694 64.696 68.3414 64.1707 67.9174C63.616 67.472 63.1574 66.784 62.808 65.8134C62.08 63.8 62.0027 61.1467 62.0027 58.6667C62.0027 58.1598 61.8101 57.6718 61.464 57.3014L61.024 56.8294C60.8792 56.6695 60.728 56.5156 60.5707 56.368C60.3734 56.1814 59.7707 55.608 57.416 53.2534C56.1654 52.0027 55.4747 50.9467 55.248 50.1387C55.1542 49.8593 55.1395 49.5593 55.2054 49.272C55.3041 48.9397 55.4934 48.6415 55.752 48.4107C55.9824 48.1534 56.2797 47.9651 56.6107 47.8667C56.8971 47.8013 57.1961 47.8161 57.4747 47.9094C58.28 48.136 59.336 48.832 60.5867 50.0827C62.0267 51.5227 63.3947 52.8747 64.6187 54.0827C66.6454 56.088 68.28 57.7094 69.2054 58.696C69.5679 59.0807 70.068 59.3063 70.5963 59.3233C71.1247 59.3404 71.6383 59.1476 72.0249 58.787C72.4115 58.4265 72.6396 57.9276 72.6595 57.3994C72.6793 56.8711 72.4892 56.3565 72.1307 55.968C70.9957 54.7807 69.8409 53.6126 68.6667 52.464V43.4934L76.2454 51.072C77.368 52.1974 78.0027 53.7227 78.0027 55.312V78.6667C78.0027 79.1971 78.2134 79.7058 78.5885 80.0809C78.9636 80.456 79.4723 80.6667 80.0027 80.6667C80.5331 80.6667 81.0418 80.456 81.4169 80.0809C81.792 79.7058 82.0027 79.1971 82.0027 78.6667V55.3147C82.0026 54.0012 81.7437 52.7006 81.2409 51.4872C80.738 50.2737 80.001 49.1713 79.072 48.2427L68.6667 37.8374V33.3307C68.666 31.7399 68.0335 30.2144 66.9084 29.0898C65.7832 27.9651 64.2575 27.3334 62.6667 27.3334H42.6667ZM61.664 71.0347C62.5402 71.737 63.5685 72.2247 64.6667 72.4587V72.6667H62.6667C62.1363 72.6667 61.6275 72.8774 61.2525 73.2525C60.8774 73.6276 60.6667 74.1363 60.6667 74.6667V76.6667H56.6667V74.6667C56.6668 73.5363 56.9863 72.4289 57.5883 71.4721C58.1903 70.5153 59.0503 69.7481 60.0694 69.2587C60.496 69.9094 61.0187 70.5174 61.664 71.0347ZM58.0054 59.456C58.0107 60.1307 58.024 60.8587 58.064 61.616C56.8223 62.4956 55.3844 63.0581 53.8755 63.2548C52.3667 63.4515 50.8326 63.2762 49.4069 62.7444C47.9813 62.2125 46.7073 61.3401 45.6959 60.2032C44.6846 59.0664 43.9665 57.6994 43.6043 56.2216C43.242 54.7437 43.2466 53.1996 43.6177 51.7239C43.9887 50.2482 44.7149 48.8856 45.733 47.7548C46.7512 46.624 48.0303 45.7592 49.4591 45.2358C50.8879 44.7125 52.423 44.5464 53.9307 44.752C53.5751 44.9885 53.2391 45.2658 52.9227 45.584C52.144 46.3627 51.5894 47.264 51.3307 48.2774C51.072 49.2907 51.1334 50.288 51.3974 51.2214C51.9014 53.016 53.1707 54.664 54.5894 56.0827C55.6739 57.1805 56.7727 58.2641 57.8854 59.3334L57.896 59.3414L57.9947 59.4454L58.0054 59.456ZM44.6667 31.3334H48.6667V33.3334C48.6667 34.9247 48.0345 36.4508 46.9093 37.576C45.7841 38.7012 44.258 39.3334 42.6667 39.3334H40.6667V35.3334H42.6667C43.1971 35.3334 43.7058 35.1227 44.0809 34.7476C44.456 34.3725 44.6667 33.8638 44.6667 33.3334V31.3334ZM56.6667 31.3334H60.6667V33.3334C60.6667 34.4374 61.5627 35.3334 62.6667 35.3334H64.6667V39.3334H62.6667C61.0754 39.3334 59.5493 38.7012 58.424 37.576C57.2988 36.4508 56.6667 34.9247 56.6667 33.3334V31.3334ZM48.6667 76.6667H44.6667V74.6667C44.6667 74.1363 44.456 73.6276 44.0809 73.2525C43.7058 72.8774 43.1971 72.6667 42.6667 72.6667H40.6667V68.6667H42.6667C44.258 68.6667 45.7841 69.2988 46.9093 70.4241C48.0345 71.5493 48.6667 73.0754 48.6667 74.6667V76.6667Z" fill="#0C3851"/>
<defs>
<filter id="filter0_d_288_92" x="0" y="0" width="116" height="115" filterUnits="userSpaceOnUse" color-interpolation-filters="sRGB">
<feFlood flood-opacity="0" result="BackgroundImageFix"/>
<feColorMatrix in="SourceAlpha" type="matrix" values="0 0 0 0 0 0 0 0 0 0 0 0 0 0 0 0 0 0 127 0" result="hardAlpha"/>
<feOffset dy="4"/>
<feGaussianBlur stdDeviation="2"/>
<feComposite in2="hardAlpha" operator="out"/>
<feColorMatrix type="matrix" values="0 0 0 0 0 0 0 0 0 0 0 0 0 0 0 0 0 0 0.25 0"/>
<feBlend mode="normal" in2="BackgroundImageFix" result="effect1_dropShadow_288_92"/>
<feBlend mode="normal" in="SourceGraphic" in2="effect1_dropShadow_288_92" result="shape"/>
</filter>
</defs>
</svg>
