<svg width="75" height="75" viewBox="0 0 75 75" fill="none" xmlns="http://www.w3.org/2000/svg">
<path d="M50 38C58.625 38 65.625 31 65.625 22.375C65.625 13.75 58.625 6.75 50 6.75C41.375 6.75 34.375 13.75 34.375 22.375C34.375 31 41.375 38 50 38ZM67.0313 55.5C65.8125 54.25 64.2813 53.625 62.5 53.625H40.625L34.125 51.3438L35.1563 48.4062L40.625 50.5H49.375C50.4688 50.5 51.3438 50.0625 52.0625 49.3438C52.7813 48.625 53.125 47.75 53.125 46.7812C53.125 45.0938 52.3125 43.9375 50.6875 43.2812L27.9688 34.875H21.875V63L43.75 69.25L68.8438 59.875C68.875 58.2188 68.25 56.75 67.0313 55.5ZM15.625 34.875H3.07501V69.25H15.625V34.875Z" fill="#0C3851"/>
</svg>
